<svg xmlns="http://www.w3.org/2000/svg" enable-background="new 0 0 47.5 47.5" viewBox="0 0 47.5 47.5" id="candy"><defs><clipPath id="a"><path d="M0 38h38V0H0v38Z"></path></clipPath><clipPath id="b"><path d="m23.795 8.428.399-3.055c.531-4.074 5.628-4.3 6.248-2.126l.933 4.042 4.041.932c2.173.621 1.949 5.718-2.125 6.25l-3.055.398a7.388 7.388 0 0 1-.949.063c-3.564 0-5.981-2.755-5.492-6.504"></path></clipPath><clipPath id="c"><path d="m8.051 35.588-.935-4.041-4.041-.934c-2.174-.62-1.948-5.716 2.126-6.248l3.055-.399c4.074-.531 6.973 2.367 6.441 6.441l-.399 3.055c-.316 2.429-2.256 3.49-3.902 3.49-1.115 0-2.095-.486-2.345-1.364"></path></clipPath><clipPath id="d"><path d="M0 38h38V0H0v38Z"></path></clipPath><clipPath id="e"><path d="M12.246 27.21c-4.159-4.161-4.158-10.905 0-15.064 4.161-4.159 10.905-4.159 15.064 0 4.159 4.159 4.159 10.903 0 15.064a10.622 10.622 0 0 1-7.532 3.119c-2.726 0-5.452-1.04-7.532-3.119"></path></clipPath></defs><g clip-path="url(#a)" transform="matrix(1.25 0 0 -1.25 0 47.5)"><path fill="#dd2e44" d="M0 0c-.531 4.075-5.627 4.299-6.248 2.125l-.934-4.041-4.041-.933c-2.174-.621-1.949-5.717 2.126-6.248l3.054-.399C-1.969-10.027.93-7.129.398-3.055L0 0Z" transform="translate(14.298 33.462)"></path><path fill="#dd2e44" d="M0 0c4.074-.531 4.299-5.629 2.125-6.249l-4.041-.933-.934-4.042c-.62-2.173-5.716-1.948-6.248 2.126l-.398 3.055C-10.027-1.969-7.129.93-3.055.398L0 0Z" transform="translate(33.291 14.47)"></path></g><g clip-path="url(#b)" transform="matrix(1.25 0 0 -1.25 0 47.5)"><path fill="#be1931" d="M0 0c-2.846-2.846-3.734-6.572-1.981-8.324 1.75-1.751 5.477-.864 8.323 1.982S10.075.231 8.324 1.982C6.572 3.734 2.846 2.846 0 0" transform="translate(22.554 16.902)"></path></g><g clip-path="url(#c)" transform="matrix(1.25 0 0 -1.25 0 47.5)"><path fill="#be1931" d="M0 0c-2.846-2.846-3.733-6.573-1.982-8.324 1.752-1.752 5.478-.864 8.324 1.982C9.189-3.496 10.076.23 8.324 1.982 6.573 3.733 2.846 2.846 0 0" transform="translate(10.662 28.794)"></path></g><g clip-path="url(#d)" transform="matrix(1.25 0 0 -1.25 0 47.5)"><path fill="#dd2e44" d="M0 0c-4.159-4.16-10.903-4.16-15.063 0-4.159 4.159-4.159 10.903 0 15.063 4.16 4.159 10.904 4.159 15.063 0C4.16 10.903 4.16 4.159 0 0" transform="translate(27.31 12.146)"></path></g><g clip-path="url(#e)" transform="matrix(1.25 0 0 -1.25 0 47.5)"><path fill="#f5f8fa" d="M0 0c-4.184-2.535-11.269-3.17-12.486 1.679-1.162-2.766-1.21-5.46.246-7.156C-10.783-7.174-4.02-6.988 0 0" transform="translate(19.709 19.959)"></path><path fill="#f5f8fa" d="M0 0c.643-4.85-2.532-12.044-7.461-11.212 2.066-2.175 4.514-3.3 6.652-2.646C1.331-13.205 4.787-6.486 0 0" transform="translate(19.75 20)"></path><path fill="#f5f8fa" d="M0 0c4.65-.867 8.234-5.483 6.392-10.132 2.557 1.568 5.114 2.564 4.921 4.791C11.121-3.114 7.344 3.328 0 0" transform="translate(19.75 20)"></path><path fill="#f5f8fa" d="M0 0c1.541 3.333 8.285 6.246 12.168 3.096-.73 2.91-.734 5.42-2.918 5.904C7.067 9.484-.976 8.003 0 0" transform="translate(19.75 20)"></path><path fill="#f5f8fa" d="M0 0c-3.875 2.042-5.792 8.042-1.792 11.042-3 0-6 0-7-2S-8 1 0 0" transform="translate(19.791 19.959)"></path><path fill="none" stroke="#dd2e44" stroke-miterlimit="10" stroke-width="3" d="M0 0c-4.159-4.16-10.903-4.16-15.063 0-4.159 4.159-4.159 10.903 0 15.063 4.16 4.159 10.904 4.159 15.063 0C4.16 10.903 4.16 4.159 0 0Z" transform="translate(27.31 12.146)"></path></g></svg>